<svg xmlns="http://www.w3.org/2000/svg" width="200" height="200" viewBox="0 0 200 200"><rect width="200" height="200" fill="#fbeed3"/><path d="M30 95 Q30 40 100 40 Q170 40 170 95 Z" fill="#d9903d"/><circle cx="70" cy="62" r="4" fill="#f5deb3"/><circle cx="100" cy="55" r="4" fill="#f5deb3"/><circle cx="130" cy="62" r="4" fill="#f5deb3"/><path d="M25 100 Q45 115 65 100 Q85 115 105 100 Q125 115 145 100 Q165 115 175 100 V112 H25 Z" fill="#6ea83a"/><rect x="28" y="112" width="144" height="26" rx="8" fill="#6b3a1e"/><rect x="28" y="140" width="144" height="10" fill="#f2c14e"/><path d="M30 152 H170 Q170 175 100 175 Q30 175 30 152 Z" fill="#d9903d"/></svg>
