<svg xmlns="http://www.w3.org/2000/svg" viewBox="0 0 400 400"><circle cx="200" cy="200" r="190" fill="#dfe7e3"/><circle cx="200" cy="200" r="172" fill="#fbfbf8"/><circle cx="200" cy="200" r="125" fill="#eff2ed"/><ellipse cx="200" cy="215" rx="98" ry="78" fill="#f0c766"/><g fill="#e0a83e"><circle cx="150" cy="230" r="4"/><circle cx="175" cy="250" r="4"/><circle cx="215" cy="255" r="4"/><circle cx="245" cy="235" r="4"/><circle cx="230" cy="215" r="4"/><circle cx="165" cy="205" r="4"/><circle cx="200" cy="235" r="4"/></g><ellipse cx="165" cy="175" rx="50" ry="30" transform="rotate(-25 165 175)" fill="#9c4a24"/><ellipse cx="240" cy="185" rx="46" ry="28" transform="rotate(22 240 185)" fill="#b25a2b"/><circle cx="200" cy="140" r="18" fill="#b5344a"/><circle cx="200" cy="140" r="9" fill="#d45b6d"/><g fill="#5fa03a"><ellipse cx="135" cy="215" rx="16" ry="7" transform="rotate(30 135 215)"/><ellipse cx="270" cy="230" rx="16" ry="7" transform="rotate(-30 270 230)"/><ellipse cx="205" cy="270" rx="16" ry="7"/><ellipse cx="240" cy="150" rx="14" ry="6" transform="rotate(40 240 150)"/></g></svg>
